<svg width="50" height="50" viewBox="0 0 50 50" fill="none" xmlns="http://www.w3.org/2000/svg">
<circle cx="25" cy="25" r="25" fill="#FFFCF6"/>
<path d="M24.0964 33.4336C24.0964 33.9326 24.5009 34.3372 25 34.3372C25.4991 34.3372 25.9036 33.9326 25.9036 33.4336L24.0964 33.4336ZM25.639 16.5296C25.2861 16.1767 24.7139 16.1767 24.361 16.5296L18.6105 22.2801C18.2576 22.633 18.2576 23.2052 18.6105 23.5581C18.9634 23.9109 19.5355 23.9109 19.8884 23.5581L25 18.4464L30.1116 23.5581C30.4645 23.9109 31.0366 23.9109 31.3895 23.5581C31.7424 23.2052 31.7424 22.633 31.3895 22.2801L25.639 16.5296ZM25.9036 33.4336L25.9036 17.1685L24.0964 17.1685L24.0964 33.4336L25.9036 33.4336Z" fill="#2B50AF"/>
</svg>
