<svg width="50" height="50" viewBox="0 0 50 50" fill="none" xmlns="http://www.w3.org/2000/svg">
<circle cx="25" cy="25" r="25" fill="#2B50AF"/>
<path d="M16.8672 24.3972C16.3681 24.3972 15.9636 24.8017 15.9636 25.3008C15.9636 25.7998 16.3681 26.2044 16.8672 26.2044V24.3972ZM33.7712 25.9397C34.1241 25.5868 34.1241 25.0147 33.7712 24.6618L28.0206 18.9113C27.6677 18.5584 27.0956 18.5584 26.7427 18.9113C26.3898 19.2641 26.3898 19.8363 26.7427 20.1892L31.8543 25.3008L26.7427 30.4124C26.3898 30.7653 26.3898 31.3374 26.7427 31.6903C27.0956 32.0432 27.6677 32.0432 28.0206 31.6903L33.7712 25.9397ZM16.8672 26.2044H33.1322V24.3972H16.8672V26.2044Z" fill="#FFFCF6"/>
</svg>
