<svg width="54" height="54" viewBox="0 0 54 54" fill="none" xmlns="http://www.w3.org/2000/svg">
<path d="M1 1.30058V52.6996C1.01862 52.8587 1.16693 53.0002 1.35226 53.0002H52.6848C52.8517 53.0002 53 52.8589 53 52.6996V1.30058C52.9814 1.14152 52.8333 1 52.6477 1H1.31502C1.14809 1 1 1.14152 1 1.30058ZM23.4127 46.7234H7.9888C7.82187 46.7234 7.67356 46.5821 7.67356 46.4228V22.4649C7.67356 22.3059 7.82187 22.1644 7.9888 22.1644H23.4127C23.5794 22.1644 23.728 22.3057 23.728 22.4649V46.4228C23.728 46.5819 23.5796 46.7234 23.4127 46.7234ZM46.1034 46.7234H30.6241C30.4572 46.7234 30.3088 46.5821 30.3088 46.4228V22.4649C30.3088 22.3059 30.4572 22.1644 30.6241 22.1644H46.085C46.2517 22.1644 46.4003 22.3057 46.4003 22.4649V46.4228C46.4003 46.5819 46.252 46.7234 46.085 46.7234H46.1034ZM46.2888 15.87H8.04444C7.87751 15.87 7.7292 15.7285 7.7292 15.5694V7.59516C7.7292 7.4361 7.87751 7.29458 8.04444 7.29458H46.2704C46.4373 7.29458 46.5856 7.4361 46.5856 7.59516V15.5694C46.5856 15.7285 46.4373 15.87 46.2704 15.87H46.2888Z" stroke="#2B50AF" stroke-width="1.47953"/>
</svg>
