<svg width="46" height="56" viewBox="0 0 46 56" fill="none" xmlns="http://www.w3.org/2000/svg">
<path d="M17.8305 33.1058L17.3053 32.5847L16.7863 33.1078L17.3074 33.6289L17.8305 33.1058ZM17.8305 33.1057L18.3557 33.6267L18.8747 33.1037L18.3536 32.5826L17.8305 33.1057ZM21.1055 36.3808L20.5824 36.9039L21.1055 37.427L21.6286 36.9039L21.1055 36.3808ZM21.1055 36.3807L21.6286 35.8576L21.1055 35.3345L20.5825 35.8576L21.1055 36.3807ZM21.106 36.3811L20.5829 36.9042L21.106 37.4273L21.6291 36.9042L21.106 36.3811ZM24.381 33.1061L24.9041 33.6292L25.4272 33.1061L24.9041 32.583L24.381 33.1061ZM24.3806 33.1057L23.8575 32.5826L23.3344 33.1057L23.8575 33.6288L24.3806 33.1057ZM35.8431 21.6432L36.3662 22.1663L36.8893 21.6432L36.3662 21.1201L35.8431 21.6432ZM32.5681 18.3682L33.0912 17.8451L32.5681 17.322L32.045 17.8451L32.5681 18.3682ZM21.1056 29.8307L20.5825 30.3538L21.1056 30.8769L21.6286 30.3538L21.1056 29.8307ZM17.0122 25.7373L17.5353 25.2142L17.0122 24.6911L16.4891 25.2142L17.0122 25.7373ZM13.7372 29.0124L13.2141 28.4893L12.691 29.0124L13.2141 29.5354L13.7372 29.0124ZM18.3556 33.6268L18.3557 33.6267L17.3054 32.5847L17.3053 32.5847L18.3556 33.6268ZM21.6286 35.8577L18.3536 32.5827L17.3074 33.6289L20.5824 36.9039L21.6286 35.8577ZM20.5825 35.8576L20.5824 35.8577L21.6286 36.9039L21.6286 36.9038L20.5825 35.8576ZM21.6291 35.8581L21.6286 35.8576L20.5825 36.9038L20.5829 36.9042L21.6291 35.8581ZM23.8579 32.583L20.5829 35.8581L21.6291 36.9042L24.9041 33.6292L23.8579 32.583ZM23.8575 33.6288L23.8579 33.6292L24.9041 32.583L24.9037 32.5826L23.8575 33.6288ZM35.32 21.1201L23.8575 32.5826L24.9037 33.6288L36.3662 22.1663L35.32 21.1201ZM32.045 18.8913L35.32 22.1663L36.3662 21.1201L33.0912 17.8451L32.045 18.8913ZM21.6286 30.3538L33.0912 18.8913L32.045 17.8451L20.5825 29.3076L21.6286 30.3538ZM16.4891 26.2604L20.5825 30.3538L21.6286 29.3076L17.5353 25.2142L16.4891 26.2604ZM14.2603 29.5354L17.5353 26.2604L16.4891 25.2142L13.2141 28.4893L14.2603 29.5354ZM18.3536 32.5826L14.2603 28.4893L13.2141 29.5354L17.3074 33.6288L18.3536 32.5826Z" fill="#2B50AF"/>
<path d="M1 12.5789L0.655457 11.9243L0.260234 12.1323V12.5789H1ZM23 1L23.3445 0.345368L23 0.164029L22.6555 0.345368L23 1ZM12.2711 46.9223L11.8534 47.5329L12.2711 46.9223ZM23 54.2632L22.5823 54.8737L23 55.1595L23.4177 54.8737L23 54.2632ZM33.7289 46.9223L34.1466 47.5329L33.7289 46.9223ZM45 12.5789H45.7398V12.1323L45.3445 11.9243L45 12.5789ZM1.34454 13.2336L23.3445 1.65463L22.6555 0.345368L0.655457 11.9243L1.34454 13.2336ZM1.73977 25.5537V12.5789H0.260234V25.5537H1.73977ZM12.6889 46.3118C5.83684 41.6236 1.73977 33.856 1.73977 25.5537H0.260234C0.260234 34.3444 4.59831 42.5689 11.8534 47.5329L12.6889 46.3118ZM23.4177 53.6526L12.6889 46.3118L11.8534 47.5329L22.5823 54.8737L23.4177 53.6526ZM23.4177 54.8737L34.1466 47.5329L33.3111 46.3118L22.5823 53.6526L23.4177 54.8737ZM34.1466 47.5329C41.4017 42.5689 45.7398 34.3444 45.7398 25.5537H44.2602C44.2602 33.856 40.1632 41.6236 33.3111 46.3118L34.1466 47.5329ZM45.7398 25.5537V12.5789H44.2602V25.5537H45.7398ZM45.3445 11.9243L23.3445 0.345368L22.6555 1.65463L44.6555 13.2336L45.3445 11.9243Z" fill="#2B50AF"/>
<path d="M4.82617 15.1971L4.48163 14.5424L4.08641 14.7504V15.1971H4.82617ZM23.0001 5.63184L23.3446 4.9772L23.0001 4.79586L22.6555 4.9772L23.0001 5.63184ZM15.1312 44.2479L14.7135 44.8584L15.1312 44.2479ZM23.0001 49.6318L22.5824 50.2424L23.0001 50.5282L23.4178 50.2424L23.0001 49.6318ZM30.869 44.2479L31.2867 44.8584L30.869 44.2479ZM41.174 15.1971H41.9138V14.7504L41.5185 14.5424L41.174 15.1971ZM5.17072 15.8517L23.3446 6.28647L22.6555 4.9772L4.48163 14.5424L5.17072 15.8517ZM5.56594 24.7108V15.1971H4.08641V24.7108H5.56594ZM15.5489 43.6373C9.3015 39.3628 5.56594 32.2806 5.56594 24.7108H4.08641C4.08641 32.769 8.06297 40.3081 14.7135 44.8584L15.5489 43.6373ZM23.4178 49.0213L15.5489 43.6373L14.7135 44.8584L22.5824 50.2424L23.4178 49.0213ZM23.4178 50.2424L31.2867 44.8584L30.4512 43.6373L22.5824 49.0213L23.4178 50.2424ZM31.2867 44.8584C37.9372 40.3081 41.9138 32.769 41.9138 24.7108H40.4342C40.4342 32.2806 36.6987 39.3628 30.4512 43.6373L31.2867 44.8584ZM41.9138 24.7108V15.1971H40.4342V24.7108H41.9138ZM41.5185 14.5424L23.3446 4.9772L22.6555 6.28647L40.8295 15.8517L41.5185 14.5424Z" fill="#2B50AF"/>
</svg>
