<svg width="46" height="55" viewBox="0 0 46 55" fill="none" xmlns="http://www.w3.org/2000/svg">
<circle cx="23.0216" cy="20.915" r="19.915" stroke="#2B50AF" stroke-width="1.47953"/>
<circle cx="23.0214" cy="20.9143" r="14.3831" stroke="#2B50AF" stroke-width="1.47953"/>
<path d="M26.3406 40.8297L32.9789 52.4468L36.2981 45.2553L44.0428 45.8085L37.9577 34.1914" stroke="#2B50AF" stroke-width="1.47953"/>
<path d="M19.7023 41.0309L13.0639 53L9.74477 45.5906L2.00004 46.1605L8.08518 34.1914" stroke="#2B50AF" stroke-width="1.47953"/>
<path d="M15.6603 14.3595V28.5763C15.6655 28.6203 15.7065 28.6594 15.7578 28.6594H29.9561C30.0023 28.6594 30.0433 28.6203 30.0433 28.5763V14.3595C30.0382 14.3155 29.9972 14.2764 29.9459 14.2764H15.7475C15.7013 14.2764 15.6603 14.3155 15.6603 14.3595ZM21.8596 26.9233H17.5934C17.5472 26.9233 17.5062 26.8842 17.5062 26.8401V20.2135C17.5062 20.1695 17.5472 20.1304 17.5934 20.1304H21.8596C21.9057 20.1304 21.9468 20.1694 21.9468 20.2135V26.8401C21.9468 26.8841 21.9058 26.9233 21.8596 26.9233ZM28.1358 26.9233H23.8542C23.8081 26.9233 23.7671 26.8842 23.7671 26.8401V20.2135C23.7671 20.1695 23.8081 20.1304 23.8542 20.1304H28.1307C28.1768 20.1304 28.2179 20.1694 28.2179 20.2135V26.8401C28.2179 26.8841 28.1769 26.9233 28.1307 26.9233H28.1358ZM28.187 18.3894H17.6088C17.5626 18.3894 17.5216 18.3502 17.5216 18.3062V16.1006C17.5216 16.0566 17.5626 16.0174 17.6088 16.0174H28.1819C28.2281 16.0174 28.2691 16.0566 28.2691 16.1006V18.3062C28.2691 18.3502 28.2281 18.3894 28.1819 18.3894H28.187Z" fill="#2B50AF"/>
</svg>
